<svg xmlns="http://www.w3.org/2000/svg" xmlns:xlink="http://www.w3.org/1999/xlink" width="800" zoomAndPan="magnify" viewBox="0 0 600 599.999999" height="800" preserveAspectRatio="xMidYMid meet" version="1.0"><path fill="#83a598" d="M 460.257812 47.304688 C 382.269531 21.734375 305.558594 2.558594 225.015625 20.457031 C 147.027344 38.355469 104.835938 104.835938 66.480469 168.761719 C 24.292969 239.078125 0 318.34375 28.125 397.609375 C 52.417969 465.371094 118.898438 543.359375 181.546875 577.878906 C 245.46875 612.394531 327.292969 598.332031 393.773438 581.710938 C 478.15625 559.976562 520.34375 521.625 559.976562 446.191406 C 599.609375 373.320312 614.953125 303 589.382812 223.734375 C 571.484375 161.089844 533.128906 75.429688 466.648438 52.417969 C 451.304688 47.304688 444.914062 70.316406 460.257812 75.429688 C 521.625 95.886719 556.144531 193.050781 572.761719 248.027344 C 594.496094 320.902344 563.8125 388.660156 529.292969 451.304688 C 496.054688 513.953125 453.863281 539.523438 387.382812 557.421875 C 317.066406 576.597656 244.191406 582.992188 177.710938 547.191406 C 126.570312 519.066406 86.9375 453.863281 57.53125 404.003906 C 11.507812 323.457031 54.976562 232.683594 97.164062 161.089844 C 134.242188 98.445312 175.152344 54.976562 246.75 39.632812 C 314.507812 24.292969 387.382812 48.582031 451.304688 70.316406 C 467.925781 75.429688 474.320312 52.417969 460.257812 47.304688 Z M 460.257812 47.304688 " fill-opacity="1" fill-rule="nonzero"/><path fill="#83a598" d="M 571.484375 14.0625 C 470.484375 85.660156 400.167969 187.9375 318.34375 279.988281 C 276.152344 327.292969 227.570312 365.648438 180.265625 407.839844 C 129.128906 455.140625 92.050781 515.230469 39.632812 561.257812 C 28.125 571.484375 44.746094 588.105469 56.253906 577.875 C 99.722656 540.800781 132.960938 494.773438 171.316406 451.304688 C 212.230469 404.003906 264.648438 368.203125 309.394531 323.457031 C 404.003906 230.128906 473.039062 113.785156 584.269531 34.519531 C 597.054688 25.570312 584.269531 5.113281 571.484375 14.0625 Z M 571.484375 14.0625 " fill-opacity="1" fill-rule="nonzero"/></svg>