<?xml version="1.0" standalone="no"?>
<!DOCTYPE svg PUBLIC "-//W3C//DTD SVG 20010904//EN"
 "http://www.w3.org/TR/2001/REC-SVG-20010904/DTD/svg10.dtd">
<svg version="1.0" xmlns="http://www.w3.org/2000/svg"
 width="512.000000pt" height="512.000000pt" viewBox="0 0 512.000000 512.000000"
 preserveAspectRatio="xMidYMid meet">
<metadata>
Created by potrace 1.14, written by Peter Selinger 2001-2017
</metadata>
<g transform="translate(0.000000,512.000000) scale(0.100000,-0.100000)"
fill="#000000" stroke="none">
<path d="M4048 4233 c-60 -44 -239 -192 -322 -267 l-39 -35 -43 30 c-24 16
-72 43 -108 58 -35 16 -67 34 -70 39 -4 6 -59 27 -124 47 -64 20 -131 41 -148
46 -17 5 -40 11 -50 13 -10 3 -53 13 -94 24 -73 20 -220 51 -270 58 -151 20
-379 25 -522 12 -276 -26 -511 -139 -703 -340 -129 -134 -219 -257 -370 -508
-185 -308 -282 -560 -311 -815 -12 -100 -5 -283 14 -380 46 -227 180 -491 366
-719 l65 -80 -31 -35 c-76 -87 -109 -122 -206 -217 -61 -61 -102 -110 -102
-122 0 -31 32 -62 67 -67 28 -3 41 4 90 48 58 53 212 210 254 260 l24 28 35
-33 c121 -115 273 -231 381 -291 89 -48 198 -81 374 -112 36 -6 289 -7 325 -1
14 3 50 7 80 10 54 6 134 19 255 41 91 17 292 70 369 97 403 141 670 425 894
949 40 96 97 267 106 324 3 17 10 55 17 85 14 74 19 299 8 379 -18 124 -25
156 -61 276 -99 334 -211 565 -361 745 l-46 55 68 62 c78 71 231 197 283 233
51 35 62 63 42 106 -9 19 -19 34 -23 35 -3 0 -16 2 -28 5 -14 2 -43 -12 -85
-43z m-1423 -98 c196 -21 341 -56 625 -151 167 -56 325 -129 325 -151 0 -6
-25 -38 -55 -70 -94 -99 -222 -243 -324 -363 -114 -134 -97 -113 -255 -305
-69 -82 -141 -168 -160 -190 -20 -22 -61 -70 -91 -105 -102 -120 -276 -297
-420 -426 -30 -27 -59 -54 -65 -60 -5 -5 -44 -39 -85 -75 -41 -35 -80 -68 -86
-74 -6 -5 -42 -37 -80 -70 -182 -158 -252 -229 -403 -405 -64 -74 -121 -140
-127 -147 -9 -9 -28 11 -81 85 -70 98 -223 343 -262 419 -28 57 -68 177 -78
238 -15 91 -9 278 11 380 34 172 153 458 276 665 18 30 44 75 58 100 92 164
260 369 382 465 172 135 385 220 604 241 33 3 62 7 63 8 4 4 173 -3 228 -9z
m1096 -427 c87 -103 200 -310 273 -501 132 -344 168 -532 137 -727 -6 -36 -13
-83 -17 -105 -25 -159 -212 -580 -350 -785 -135 -201 -320 -339 -577 -429 -80
-28 -274 -81 -352 -96 -16 -3 -39 -8 -50 -10 -147 -28 -483 -41 -565 -21 -14
3 -52 11 -85 17 -191 35 -405 144 -540 277 -100 98 -106 69 46 249 74 87 190
214 259 283 133 133 149 147 305 280 349 295 514 466 930 965 177 213 298 354
340 401 109 120 210 224 217 224 6 0 18 -10 29 -22z"/>
</g>
</svg>
